<svg width="319" height="319" viewBox="0 0 319 319" fill="none" xmlns="http://www.w3.org/2000/svg">
<path d="M141.306 10.6566C152.542 4.07511 166.458 4.07511 177.694 10.6566L184.645 14.7278C190.655 18.2478 197.557 19.9489 204.514 19.625L212.561 19.2504C225.569 18.6447 237.89 25.1114 244.781 36.1611L249.044 42.9962C252.73 48.9058 258.05 53.6195 264.361 56.5659L271.66 59.9736C283.46 65.4826 291.365 76.9346 292.331 89.921L292.929 97.9542C293.446 104.9 295.967 111.546 300.186 117.088L305.065 123.497C312.953 133.859 314.63 147.672 309.451 159.621L306.248 167.012C303.478 173.402 302.621 180.458 303.781 187.326L305.123 195.269C307.292 208.109 302.358 221.12 292.219 229.293L285.948 234.348C280.525 238.719 276.487 244.569 274.323 251.189L271.82 258.846C267.774 271.223 257.358 280.451 244.583 282.976L236.68 284.538C229.848 285.888 223.554 289.192 218.561 294.048L212.786 299.664C203.451 308.743 189.94 312.074 177.455 308.372L169.732 306.083C163.054 304.104 155.946 304.104 149.268 306.083L141.545 308.372C129.06 312.074 115.549 308.743 106.214 299.664L100.439 294.048C95.4464 289.192 89.1523 285.888 82.3198 284.538L74.4173 282.976C61.6421 280.451 51.2264 271.223 47.1799 258.846L44.6768 251.189C42.5126 244.569 38.4746 238.719 33.0523 234.348L26.7808 229.293C16.6424 221.12 11.708 208.109 13.8772 195.269L15.219 187.326C16.3792 180.458 15.5223 173.402 12.7524 167.012L9.54876 159.621C4.36969 147.672 6.04698 133.859 13.9349 123.497L18.8143 117.088C23.033 111.546 25.5536 104.9 26.0707 97.9542L26.6687 89.921C27.6355 76.9346 35.5402 65.4826 47.3399 59.9736L54.639 56.5659C60.9498 53.6195 66.2704 48.9058 69.956 42.9962L74.2187 36.1611C81.1098 25.1114 93.4311 18.6447 106.439 19.2504L114.486 19.625C121.443 19.9489 128.345 18.2478 134.355 14.7278L141.306 10.6566Z" fill="white"/>
<path d="M272.447 172.148C273.954 172.247 275.096 173.549 274.998 175.056C274.899 176.564 273.597 177.706 272.09 177.607L255.338 176.511C255.288 176.507 255.239 176.503 255.19 176.497C253.801 191.346 245.564 205.233 232.106 213.357L189.538 127.059C204.554 121.177 221.038 123.345 233.808 131.803L242.833 118.294C243.672 117.038 245.371 116.7 246.627 117.539C247.883 118.379 248.221 120.077 247.382 121.333L238.196 135.083C243.158 139.253 247.356 144.496 250.408 150.682C253.645 157.245 255.254 164.186 255.391 171.049C255.491 171.044 255.592 171.045 255.695 171.052L272.447 172.148Z" fill="#3DDC84"/>
<path d="M213.83 144.326C214.66 146.008 216.696 146.699 218.377 145.869C220.059 145.04 220.75 143.004 219.92 141.322C219.091 139.64 217.055 138.95 215.373 139.779C213.692 140.609 213.001 142.644 213.83 144.326Z" fill="white"/>
<path d="M233.273 183.742C234.102 185.424 236.138 186.115 237.82 185.285C239.502 184.456 240.192 182.42 239.363 180.738C238.533 179.056 236.498 178.366 234.816 179.195C233.134 180.025 232.443 182.06 233.273 183.742Z" fill="white"/>
<rect x="150.615" y="44" width="16.9231" height="33.8462" rx="8.46154" fill="#4285F4"/>
<path d="M159.297 116.855L102.385 234.385C82.5 252.154 79.1154 250.462 80.3846 224.654L139.797 102.762L159.022 112.139L178.679 102.552L238.071 223.454C239.831 250.063 236.414 251.688 216.858 234.799L159.297 116.855Z" fill="#4285F4"/>
<path d="M87.6189 135.055C86.1996 133 83.3495 132.459 81.3591 133.967L67.2183 144.68C65.4525 146.017 65.0109 148.496 66.2771 150.314C87.0677 180.16 121.638 199.692 160.769 199.692C173.272 199.692 185.309 197.698 196.58 194.011C199.243 193.14 200.212 189.887 198.914 187.404C195.916 181.673 193.682 174.597 191.734 168.428C191.656 168.179 191.385 168.046 191.139 168.136C181.663 171.582 171.436 173.462 160.769 173.462C130.433 173.462 103.649 158.258 87.6189 135.055Z" fill="#4285F4"/>
<path fill-rule="evenodd" clip-rule="evenodd" d="M159.5 118.462C173.286 118.462 184.462 107.286 184.462 93.5C184.462 79.7141 173.286 68.5385 159.5 68.5385C145.714 68.5385 134.538 79.7141 134.538 93.5C134.538 107.286 145.714 118.462 159.5 118.462ZM159.5 107.462C167.211 107.462 173.462 101.211 173.462 93.5C173.462 85.7892 167.211 79.5385 159.5 79.5385C151.789 79.5385 145.538 85.7892 145.538 93.5C145.538 101.211 151.789 107.462 159.5 107.462Z" fill="black"/>
</svg>
