<svg xmlns="http://www.w3.org/2000/svg" xmlns:xlink="http://www.w3.org/1999/xlink" version="1.1" width="1000" height="1000" viewBox="0 0 1000 1000" xml:space="preserve">
<desc>Created with Fabric.js 3.5.0</desc>
<defs>
</defs>
<rect x="0" y="0" width="100%" height="100%" fill="#ffffff"/>
<g transform="matrix(0.7609 0 0 0.7609 500.0039 352.5923)" id="496936">
<g style="" vector-effect="non-scaling-stroke">
		<g transform="matrix(2.9481 0 0 2.9481 -0.0002 -10.3187)" id="SVGRepo_tracerCarrier">
<path style="stroke: rgb(204,204,204); stroke-width: 28.16; stroke-dasharray: none; stroke-linecap: round; stroke-dashoffset: 0; stroke-linejoin: round; stroke-miterlimit: 4; is-custom-font: none; font-file-url: none; fill: rgb(24,4,174); fill-rule: nonzero; opacity: 1;" transform=" translate(-128.0006, -124.5005)" d="M 47.522 170.287 l 11.172 76.681 h 138.612 l 11.172 -76.681 H 47.522 z M 128 215.249 c -5.748 0 -10.407 -3.063 -10.407 -6.84 s 4.659 -6.84 10.407 -6.84 c 5.748 0 10.407 3.062 10.407 6.84 S 133.748 215.249 128 215.249 z M 233.315 233.054 h -26.028 l 10.292 -70.639 H 38.421 l 10.292 70.639 H 22.685 c -14.848 0 -24.85 -15.195 -18.978 -28.834 l 36.809 -85.489 c 7.149 -16.605 23.493 -27.362 41.571 -27.362 h 14.486 l 22.885 34.061 l 4.665 -22.254 l -7.809 -11.807 h 23.491 l -7.81 11.807 l 4.655 22.098 l 22.78 -33.905 h 14.486 c 18.078 0 34.422 10.757 41.571 27.362 l 36.808 85.489 C 258.165 217.858 248.164 233.054 233.315 233.054 z M 128 2.033 c 22.496 0 40.733 18.237 40.733 40.733 S 150.496 83.498 128 83.498 S 87.267 65.261 87.267 42.765 S 105.504 2.033 128 2.033 z" stroke-linecap="round"/>
</g>
		<g transform="matrix(2.9481 0 0 2.9481 -0.0001 -10.3186)" id="SVGRepo_iconCarrier">
<path style="stroke: rgb(24,4,174); stroke-width: 2.304; stroke-dasharray: none; stroke-linecap: butt; stroke-dashoffset: 0; stroke-linejoin: miter; stroke-miterlimit: 4; is-custom-font: none; font-file-url: none; fill: rgb(24,4,174); fill-rule: nonzero; opacity: 1;" transform=" translate(-128.0006, -124.5005)" d="M 47.522 170.287 l 11.172 76.681 h 138.612 l 11.172 -76.681 H 47.522 z M 128 215.249 c -5.748 0 -10.407 -3.063 -10.407 -6.84 s 4.659 -6.84 10.407 -6.84 c 5.748 0 10.407 3.062 10.407 6.84 S 133.748 215.249 128 215.249 z M 233.315 233.054 h -26.028 l 10.292 -70.639 H 38.421 l 10.292 70.639 H 22.685 c -14.848 0 -24.85 -15.195 -18.978 -28.834 l 36.809 -85.489 c 7.149 -16.605 23.493 -27.362 41.571 -27.362 h 14.486 l 22.885 34.061 l 4.665 -22.254 l -7.809 -11.807 h 23.491 l -7.81 11.807 l 4.655 22.098 l 22.78 -33.905 h 14.486 c 18.078 0 34.422 10.757 41.571 27.362 l 36.808 85.489 C 258.165 217.858 248.164 233.054 233.315 233.054 z M 128 2.033 c 22.496 0 40.733 18.237 40.733 40.733 S 150.496 83.498 128 83.498 S 87.267 65.261 87.267 42.765 S 105.504 2.033 128 2.033 z" stroke-linecap="round"/>
</g>
</g>
</g>
<g transform="matrix(1 0 0 1 494.0014 879.74)" style="" id="98764">
		
<path xml:space="preserve" font-family="Aclonica" font-size="96" font-style="normal" font-weight="normal" style="stroke: none; stroke-width: 1; stroke-dasharray: none; stroke-linecap: butt; stroke-dashoffset: 0; stroke-linejoin: miter; stroke-miterlimit: 4; is-custom-font: none; font-file-url: none; fill: rgb(114,7,241); fill-rule: nonzero; opacity: 1; white-space: pre;" d="M-418.83 30.16L-434.25-20.19L-439.50 30.16L-450.98 30.16L-439.50-37.34L-422.48-37.34L-406.69 14.17L-390.70-37.34L-373.69-37.34L-364.13 30.16L-383.06 30.16L-388.64-18.87L-401.81 30.16L-418.83 30.16ZM-296.95 2.97L-296.95 2.97Q-296.95 7.19-298.08 10.89Q-299.20 14.59-301.20 17.74Q-303.19 20.88-306.00 23.38Q-308.81 25.89-312.16 27.63Q-315.52 29.36-319.34 30.30Q-323.16 31.24-327.19 31.24L-327.19 31.24Q-331.22 31.24-335.02 30.30Q-338.81 29.36-342.16 27.63Q-345.52 25.89-348.33 23.38Q-351.14 20.88-353.13 17.74Q-355.13 14.59-356.25 10.87Q-357.38 7.14-357.38 2.97L-357.38 2.97Q-357.38-1.20-356.25-4.93Q-355.13-8.66-353.13-11.80Q-351.14-14.94-348.33-17.44Q-345.52-19.95-342.16-21.69Q-338.81-23.42-335.02-24.36Q-331.22-25.30-327.19-25.30L-327.19-25.30Q-323.16-25.30-319.34-24.36Q-315.52-23.42-312.16-21.69Q-308.81-19.95-306.00-17.44Q-303.19-14.94-301.20-11.80Q-299.20-8.66-298.08-4.93Q-296.95-1.20-296.95 2.97ZM-313.08 2.97L-313.08 2.97Q-313.08 0.72-313.34-1.79Q-313.59-4.30-314.20-6.71Q-314.81-9.12-315.87-11.35Q-316.92-13.58-318.47-15.24Q-320.02-16.91-322.17-17.91Q-324.33-18.92-327.19-18.92L-327.19-18.92Q-329.91-18.92-332.02-17.89Q-334.13-16.86-335.70-15.15Q-337.27-13.44-338.32-11.19Q-339.38-8.94-340.03-6.52Q-340.69-4.11-340.97-1.65Q-341.25 0.81-341.25 2.97L-341.25 2.97Q-341.25 5.13-340.97 7.59Q-340.69 10.05-340.03 12.49Q-339.38 14.92-338.32 17.15Q-337.27 19.38-335.70 21.09Q-334.13 22.80-332.02 23.83Q-329.91 24.86-327.19 24.86L-327.19 24.86Q-324.38 24.86-322.22 23.85Q-320.06 22.84-318.49 21.16Q-316.92 19.47-315.89 17.27Q-314.86 15.06-314.23 12.63Q-313.59 10.19-313.34 7.70Q-313.08 5.22-313.08 2.97ZM-229.41 3.16L-229.41 3.16Q-229.41 9.06-231.19 14.22Q-232.97 19.38-236.34 23.20Q-239.72 27.02-244.59 29.22Q-249.47 31.42-255.66 31.42L-255.66 31.42Q-258.80 31.42-261.63 30.49Q-264.47 29.55-266.84 27.84Q-269.20 26.13-271.01 23.74Q-272.81 21.34-273.84 18.39L-273.84 18.39L-280.88 30.16L-286.97 30.16L-286.97-43.91L-271.13-43.91L-271.13-17.51Q-268.31-21.41-264.35-23.23Q-260.39-25.06-255.66-25.06L-255.66-25.06Q-249.47-25.06-244.59-22.86Q-239.72-20.66-236.34-16.86Q-232.97-13.06-231.19-7.91Q-229.41-2.75-229.41 3.16ZM-245.48 3.16L-245.48 3.16Q-245.48 1.09-245.70-1.23Q-245.91-3.55-246.42-5.84Q-246.94-8.14-247.85-10.25Q-248.77-12.36-250.17-13.98Q-251.58-15.59-253.55-16.55Q-255.52-17.51-258.19-17.51L-258.19-17.51Q-260.63-17.51-262.52-16.51Q-264.42-15.50-265.85-13.81Q-267.28-12.12-268.27-9.97Q-269.25-7.81-269.86-5.51Q-270.47-3.22-270.75-0.97Q-271.03 1.28-271.03 3.16L-271.03 3.16Q-271.03 5.27-270.82 7.61Q-270.61 9.95-270.09 12.27Q-269.58 14.59-268.66 16.68Q-267.75 18.77-266.32 20.38Q-264.89 22.00-262.90 22.94Q-260.91 23.88-258.19 23.88L-258.19 23.88Q-255.56 23.88-253.57 22.92Q-251.58 21.95-250.17 20.34Q-248.77 18.72-247.85 16.59Q-246.94 14.45-246.42 12.16Q-245.91 9.86-245.70 7.54Q-245.48 5.22-245.48 3.16ZM-202.55-37.06L-202.55-37.06Q-202.55-35.28-203.23-33.69Q-203.91-32.09-205.08-30.92Q-206.25-29.75-207.84-29.07Q-209.44-28.39-211.22-28.39L-211.22-28.39Q-213.00-28.39-214.57-29.07Q-216.14-29.75-217.31-30.92Q-218.48-32.09-219.16-33.69Q-219.84-35.28-219.84-37.06L-219.84-37.06Q-219.84-38.84-219.16-40.41Q-218.48-41.98-217.31-43.16Q-216.14-44.33-214.57-45.01Q-213.00-45.69-211.22-45.69L-211.22-45.69Q-209.44-45.69-207.84-45.01Q-206.25-44.33-205.08-43.16Q-203.91-41.98-203.23-40.41Q-202.55-38.84-202.55-37.06ZM-203.25-23.94L-203.25 30.16L-219.14 30.16L-219.14-23.94L-203.25-23.94ZM-174.14-32.47L-174.14 30.16L-189.98 30.16L-189.98-48.92L-183.89-48.92L-174.14-32.47ZM-147.89 4.47L-147.89 4.47Q-144.98 5.13-142.08 5.50Q-139.17 5.88-136.22 5.88L-136.22 5.88Q-133.13 5.88-130.48 5.29Q-127.83 4.70-125.88 3.32Q-123.94 1.94-122.81-0.36Q-121.69-2.66-121.69-6.08L-121.69-6.08Q-121.69-8.84-122.44-11.14Q-123.19-13.44-124.66-15.08Q-126.14-16.72-128.30-17.63Q-130.45-18.55-133.31-18.55L-133.31-18.55Q-135.98-18.55-138.12-17.56Q-140.25-16.58-141.87-14.91Q-143.48-13.25-144.63-11.05Q-145.78-8.84-146.53-6.45Q-147.28-4.06-147.61-1.62Q-147.94 0.81-147.94 2.97L-147.94 2.97Q-147.94 3.34-147.94 3.72Q-147.94 4.09-147.89 4.47ZM-108.84-6.22L-108.84-6.22Q-108.84-2.89-109.92-0.29Q-111.00 2.31-112.85 4.28Q-114.70 6.25-117.14 7.61Q-119.58 8.97-122.34 9.84Q-125.11 10.70-128.04 11.08Q-130.97 11.45-133.73 11.45L-133.73 11.45Q-137.25 11.45-140.67 10.96Q-144.09 10.47-147.42 9.39L-147.42 9.39Q-146.91 12.49-145.78 15.27Q-144.66 18.06-142.78 20.15Q-140.91 22.24-138.16 23.45Q-135.42 24.67-131.67 24.67L-131.67 24.67Q-129.19 24.67-126.94 23.92Q-124.69 23.17-122.81 21.81Q-120.94 20.45-119.51 18.58Q-118.08 16.70-117.19 14.41L-117.19 14.41L-110.34 16.94Q-111.89 20.64-114.59 23.34Q-117.28 26.03-120.68 27.79Q-124.08 29.55-127.90 30.39Q-131.72 31.24-135.47 31.24L-135.47 31.24Q-141.66 31.24-146.91 29.15Q-152.16 27.06-155.95 23.31Q-159.75 19.56-161.91 14.36Q-164.06 9.16-164.06 2.97L-164.06 2.97Q-164.06-3.22-161.91-8.42Q-159.75-13.62-155.95-17.37Q-152.16-21.12-146.91-23.21Q-141.66-25.30-135.47-25.30L-135.47-25.30Q-132.47-25.30-129.33-24.87Q-126.19-24.45-123.23-23.54Q-120.28-22.62-117.66-21.17Q-115.03-19.72-113.09-17.58Q-111.14-15.45-109.99-12.64Q-108.84-9.83-108.84-6.22ZM-5.30-3.69L-5.30-3.69Q-5.30 1.24-6.61 5.67Q-7.92 10.09-10.29 13.84Q-12.66 17.59-15.94 20.62Q-19.22 23.64-23.18 25.75Q-27.14 27.86-31.66 29.01Q-36.19 30.16-40.97 30.16L-40.97 30.16L-70.73 30.16L-70.73-37.34L-40.97-37.34Q-36.19-37.34-31.69-36.22Q-27.19-35.09-23.23-33.01Q-19.27-30.92-15.96-27.92Q-12.66-24.92-10.29-21.19Q-7.92-17.47-6.61-13.04Q-5.30-8.61-5.30-3.69ZM-24.19-3.69L-24.19-3.69Q-24.19-9.17-25.52-14.12Q-26.86-19.06-29.67-22.81Q-32.48-26.56-36.82-28.76Q-41.16-30.97-47.20-30.97L-47.20-30.97L-52.13-30.97L-52.13 23.59L-47.20 23.59Q-41.25 23.59-36.91 21.37Q-32.58 19.14-29.74 15.37Q-26.91 11.59-25.55 6.67Q-24.19 1.75-24.19-3.69ZM17.67 4.47L17.67 4.47Q20.58 5.13 23.48 5.50Q26.39 5.88 29.34 5.88L29.34 5.88Q32.44 5.88 35.09 5.29Q37.73 4.70 39.68 3.32Q41.62 1.94 42.75-0.36Q43.87-2.66 43.87-6.08L43.87-6.08Q43.87-8.84 43.12-11.14Q42.37-13.44 40.90-15.08Q39.42-16.72 37.27-17.63Q35.11-18.55 32.25-18.55L32.25-18.55Q29.58-18.55 27.45-17.56Q25.31-16.58 23.70-14.91Q22.08-13.25 20.93-11.05Q19.78-8.84 19.03-6.45Q18.28-4.06 17.95-1.62Q17.62 0.81 17.62 2.97L17.62 2.97Q17.62 3.34 17.62 3.72Q17.62 4.09 17.67 4.47ZM56.72-6.22L56.72-6.22Q56.72-2.89 55.64-0.29Q54.56 2.31 52.71 4.28Q50.86 6.25 48.42 7.61Q45.98 8.97 43.22 9.84Q40.45 10.70 37.52 11.08Q34.59 11.45 31.83 11.45L31.83 11.45Q28.31 11.45 24.89 10.96Q21.47 10.47 18.14 9.39L18.14 9.39Q18.66 12.49 19.78 15.27Q20.91 18.06 22.78 20.15Q24.66 22.24 27.40 23.45Q30.14 24.67 33.89 24.67L33.89 24.67Q36.37 24.67 38.62 23.92Q40.87 23.17 42.75 21.81Q44.62 20.45 46.05 18.58Q47.48 16.70 48.37 14.41L48.37 14.41L55.22 16.94Q53.67 20.64 50.98 23.34Q48.28 26.03 44.88 27.79Q41.48 29.55 37.66 30.39Q33.84 31.24 30.09 31.24L30.09 31.24Q23.91 31.24 18.66 29.15Q13.41 27.06 9.61 23.31Q5.81 19.56 3.66 14.36Q1.50 9.16 1.50 2.97L1.50 2.97Q1.50-3.22 3.66-8.42Q5.81-13.62 9.61-17.37Q13.41-21.12 18.66-23.21Q23.91-25.30 30.09-25.30L30.09-25.30Q33.09-25.30 36.23-24.87Q39.37-24.45 42.33-23.54Q45.28-22.62 47.91-21.17Q50.53-19.72 52.48-17.58Q54.42-15.45 55.57-12.64Q56.72-9.83 56.72-6.22ZM115.78-23.98L94.45 30.16L80.20 30.16L60.52-23.98L76.36-23.98L90.80 19.14L104.81-23.98L115.78-23.98ZM134.44 4.47L134.44 4.47Q137.34 5.13 140.25 5.50Q143.16 5.88 146.11 5.88L146.11 5.88Q149.20 5.88 151.85 5.29Q154.50 4.70 156.45 3.32Q158.39 1.94 159.52-0.36Q160.64-2.66 160.64-6.08L160.64-6.08Q160.64-8.84 159.89-11.14Q159.14-13.44 157.66-15.08Q156.19-16.72 154.03-17.63Q151.87-18.55 149.02-18.55L149.02-18.55Q146.34-18.55 144.21-17.56Q142.08-16.58 140.46-14.91Q138.84-13.25 137.70-11.05Q136.55-8.84 135.80-6.45Q135.05-4.06 134.72-1.62Q134.39 0.81 134.39 2.97L134.39 2.97Q134.39 3.34 134.39 3.72Q134.39 4.09 134.44 4.47ZM173.48-6.22L173.48-6.22Q173.48-2.89 172.41-0.29Q171.33 2.31 169.48 4.28Q167.62 6.25 165.19 7.61Q162.75 8.97 159.98 9.84Q157.22 10.70 154.29 11.08Q151.36 11.45 148.59 11.45L148.59 11.45Q145.08 11.45 141.66 10.96Q138.23 10.47 134.91 9.39L134.91 9.39Q135.42 12.49 136.55 15.27Q137.67 18.06 139.55 20.15Q141.42 22.24 144.16 23.45Q146.91 24.67 150.66 24.67L150.66 24.67Q153.14 24.67 155.39 23.92Q157.64 23.17 159.52 21.81Q161.39 20.45 162.82 18.58Q164.25 16.70 165.14 14.41L165.14 14.41L171.98 16.94Q170.44 20.64 167.74 23.34Q165.05 26.03 161.65 27.79Q158.25 29.55 154.43 30.39Q150.61 31.24 146.86 31.24L146.86 31.24Q140.67 31.24 135.42 29.15Q130.17 27.06 126.37 23.31Q122.58 19.56 120.42 14.36Q118.27 9.16 118.27 2.97L118.27 2.97Q118.27-3.22 120.42-8.42Q122.58-13.62 126.37-17.37Q130.17-21.12 135.42-23.21Q140.67-25.30 146.86-25.30L146.86-25.30Q149.86-25.30 153.00-24.87Q156.14-24.45 159.09-23.54Q162.05-22.62 164.67-21.17Q167.30-19.72 169.24-17.58Q171.19-15.45 172.34-12.64Q173.48-9.83 173.48-6.22ZM199.22-32.47L199.22 30.16L183.37 30.16L183.37-48.92L189.47-48.92L199.22-32.47ZM269.62 2.97L269.62 2.97Q269.62 7.19 268.50 10.89Q267.37 14.59 265.38 17.74Q263.39 20.88 260.58 23.38Q257.77 25.89 254.41 27.63Q251.06 29.36 247.24 30.30Q243.42 31.24 239.39 31.24L239.39 31.24Q235.36 31.24 231.56 30.30Q227.77 29.36 224.41 27.63Q221.06 25.89 218.25 23.38Q215.44 20.88 213.45 17.74Q211.45 14.59 210.33 10.87Q209.20 7.14 209.20 2.97L209.20 2.97Q209.20-1.20 210.33-4.93Q211.45-8.66 213.45-11.80Q215.44-14.94 218.25-17.44Q221.06-19.95 224.41-21.69Q227.77-23.42 231.56-24.36Q235.36-25.30 239.39-25.30L239.39-25.30Q243.42-25.30 247.24-24.36Q251.06-23.42 254.41-21.69Q257.77-19.95 260.58-17.44Q263.39-14.94 265.38-11.80Q267.37-8.66 268.50-4.93Q269.62-1.20 269.62 2.97ZM253.50 2.97L253.50 2.97Q253.50 0.72 253.24-1.79Q252.98-4.30 252.37-6.71Q251.77-9.12 250.71-11.35Q249.66-13.58 248.11-15.24Q246.56-16.91 244.41-17.91Q242.25-18.92 239.39-18.92L239.39-18.92Q236.67-18.92 234.56-17.89Q232.45-16.86 230.88-15.15Q229.31-13.44 228.26-11.19Q227.20-8.94 226.55-6.52Q225.89-4.11 225.61-1.65Q225.33 0.81 225.33 2.97L225.33 2.97Q225.33 5.13 225.61 7.59Q225.89 10.05 226.55 12.49Q227.20 14.92 228.26 17.15Q229.31 19.38 230.88 21.09Q232.45 22.80 234.56 23.83Q236.67 24.86 239.39 24.86L239.39 24.86Q242.20 24.86 244.36 23.85Q246.52 22.84 248.09 21.16Q249.66 19.47 250.69 17.27Q251.72 15.06 252.35 12.63Q252.98 10.19 253.24 7.70Q253.50 5.22 253.50 2.97ZM337.17 2.97L337.17 2.97Q337.17 8.88 335.39 14.03Q333.61 19.19 330.23 23.01Q326.86 26.83 321.98 29.03Q317.11 31.24 310.92 31.24L310.92 31.24Q306.19 31.24 302.23 29.38Q298.27 27.53 295.45 23.69L295.45 23.69L295.45 55.14L279.61 55.14L279.61-23.98L285.70-23.98L292.73-12.22Q293.77-15.17 295.57-17.58Q297.37-20.00 299.74-21.71Q302.11-23.42 304.95-24.36Q307.78-25.30 310.92-25.30L310.92-25.30Q317.11-25.30 321.98-23.09Q326.86-20.89 330.23-17.07Q333.61-13.25 335.39-8.09Q337.17-2.94 337.17 2.97ZM321.09 2.97L321.09 2.97Q321.09 0.91 320.88-1.41Q320.67-3.73 320.16-6.03Q319.64-8.33 318.73-10.44Q317.81-12.55 316.41-14.16Q315.00-15.78 313.01-16.74Q311.02-17.70 308.39-17.70L308.39-17.70Q305.67-17.70 303.68-16.76Q301.69-15.83 300.26-14.21Q298.83-12.59 297.91-10.51Q297.00-8.42 296.48-6.12Q295.97-3.83 295.76-1.48Q295.55 0.86 295.55 2.97L295.55 2.97Q295.55 4.84 295.83 7.12Q296.11 9.39 296.72 11.69Q297.33 13.99 298.31 16.14Q299.30 18.30 300.73 19.99Q302.16 21.67 304.05 22.68Q305.95 23.69 308.39 23.69L308.39 23.69Q311.06 23.69 313.03 22.73Q315.00 21.77 316.41 20.15Q317.81 18.53 318.73 16.42Q319.64 14.31 320.16 12.02Q320.67 9.72 320.88 7.38Q321.09 5.03 321.09 2.97ZM360.37 4.47L360.37 4.47Q363.28 5.13 366.19 5.50Q369.09 5.88 372.05 5.88L372.05 5.88Q375.14 5.88 377.79 5.29Q380.44 4.70 382.38 3.32Q384.33 1.94 385.45-0.36Q386.58-2.66 386.58-6.08L386.58-6.08Q386.58-8.84 385.83-11.14Q385.08-13.44 383.60-15.08Q382.12-16.72 379.97-17.63Q377.81-18.55 374.95-18.55L374.95-18.55Q372.28-18.55 370.15-17.56Q368.02-16.58 366.40-14.91Q364.78-13.25 363.63-11.05Q362.48-8.84 361.73-6.45Q360.98-4.06 360.66-1.62Q360.33 0.81 360.33 2.97L360.33 2.97Q360.33 3.34 360.33 3.72Q360.33 4.09 360.37 4.47ZM399.42-6.22L399.42-6.22Q399.42-2.89 398.34-0.29Q397.27 2.31 395.41 4.28Q393.56 6.25 391.12 7.61Q388.69 8.97 385.92 9.84Q383.16 10.70 380.23 11.08Q377.30 11.45 374.53 11.45L374.53 11.45Q371.02 11.45 367.59 10.96Q364.17 10.47 360.84 9.39L360.84 9.39Q361.36 12.49 362.48 15.27Q363.61 18.06 365.48 20.15Q367.36 22.24 370.10 23.45Q372.84 24.67 376.59 24.67L376.59 24.67Q379.08 24.67 381.33 23.92Q383.58 23.17 385.45 21.81Q387.33 20.45 388.76 18.58Q390.19 16.70 391.08 14.41L391.08 14.41L397.92 16.94Q396.37 20.64 393.68 23.34Q390.98 26.03 387.59 27.79Q384.19 29.55 380.37 30.39Q376.55 31.24 372.80 31.24L372.80 31.24Q366.61 31.24 361.36 29.15Q356.11 27.06 352.31 23.31Q348.52 19.56 346.36 14.36Q344.20 9.16 344.20 2.97L344.20 2.97Q344.20-3.22 346.36-8.42Q348.52-13.62 352.31-17.37Q356.11-21.12 361.36-23.21Q366.61-25.30 372.80-25.30L372.80-25.30Q375.80-25.30 378.94-24.87Q382.08-24.45 385.03-23.54Q387.98-22.62 390.61-21.17Q393.23-19.72 395.18-17.58Q397.12-15.45 398.27-12.64Q399.42-9.83 399.42-6.22ZM455.34-19.20L455.34-19.20L446.44-4.44Q445.87-6.31 444.98-8.66Q444.09-11.00 442.78-13.04Q441.47-15.08 439.64-16.46Q437.81-17.84 435.42-17.84L435.42-17.84Q433.22-17.84 431.60-16.72Q429.98-15.59 428.86-13.79Q427.73-11.98 427.01-9.71Q426.28-7.44 425.88-5.12Q425.48-2.80 425.34-0.66Q425.20 1.47 425.20 3.02L425.20 3.02L425.20 30.16L409.31 30.16L409.31-23.98L415.41-23.98L421.83-11.37Q423.14-14.42 424.83-16.98Q426.52-19.53 428.72-21.38Q430.92-23.23 433.71-24.26Q436.50-25.30 440.02-25.30L440.02-25.30Q441.84-25.30 444.09-24.99Q446.34-24.69 448.50-23.96Q450.66-23.23 452.48-22.06Q454.31-20.89 455.34-19.20Z"/></g>
<g transform="matrix(1 0 0 1 500 743.9578)" style="" id="538432">
		
<path xml:space="preserve" font-family="Aclonica" font-size="72" font-style="normal" font-weight="normal" style="stroke: none; stroke-width: 1; stroke-dasharray: none; stroke-linecap: butt; stroke-dashoffset: 0; stroke-linejoin: miter; stroke-miterlimit: 4; is-custom-font: none; font-file-url: none; fill: rgb(93,75,223); fill-rule: nonzero; opacity: 1; white-space: pre;" d="M-257.33-27.80L-257.33-27.80Q-257.33-26.46-257.84-25.26Q-258.35-24.07-259.22-23.19Q-260.10-22.31-261.30-21.80Q-262.49-21.29-263.83-21.29L-263.83-21.29Q-265.17-21.29-266.34-21.80Q-267.52-22.31-268.40-23.19Q-269.28-24.07-269.79-25.26Q-270.30-26.46-270.30-27.80L-270.30-27.80Q-270.30-29.13-269.79-30.31Q-269.28-31.49-268.40-32.37Q-267.52-33.25-266.34-33.75Q-265.17-34.26-263.83-34.26L-263.83-34.26Q-262.49-34.26-261.30-33.75Q-260.10-33.25-259.22-32.37Q-258.35-31.49-257.84-30.31Q-257.33-29.13-257.33-27.80ZM-257.85-17.95L-257.85 22.62L-269.77 22.62L-269.77-17.95L-257.85-17.95ZM-194.29-2.76L-194.29-2.76Q-194.29 3.35-196.40 8.26Q-198.51 13.16-202.24 16.57Q-205.96 19.98-211.06 21.81Q-216.16 23.64-222.10 23.64L-222.10 23.64Q-228.04 23.64-233.14 21.81Q-238.24 19.98-241.96 16.57Q-245.69 13.16-247.80 8.26Q-249.91 3.35-249.91-2.76L-249.91-2.76Q-249.91-8.99-247.82-13.89Q-245.72-18.80-242.02-22.19Q-238.31-25.58-233.21-27.39Q-228.11-29.20-222.10-29.20L-222.10-29.20Q-216.09-29.20-210.99-27.39Q-205.89-25.58-202.18-22.19Q-198.47-18.80-196.38-13.89Q-194.29-8.99-194.29-2.76ZM-208.49-2.76L-208.49-2.76Q-208.49-5.09-208.71-7.51Q-208.92-9.94-209.48-12.22Q-210.04-14.51-211.01-16.51Q-211.97-18.51-213.49-20.01Q-215.00-21.50-217.13-22.36Q-219.25-23.23-222.10-23.23L-222.10-23.23Q-224.98-23.23-227.13-22.36Q-229.27-21.50-230.78-20.03Q-232.29-18.55-233.24-16.55Q-234.19-14.54-234.74-12.27Q-235.28-10.01-235.49-7.56Q-235.71-5.12-235.71-2.76L-235.71-2.76Q-235.71-0.44-235.49 1.98Q-235.28 4.41-234.72 6.67Q-234.16 8.94-233.19 10.95Q-232.22 12.95-230.71 14.44Q-229.20 15.94-227.07 16.82Q-224.95 17.70-222.10 17.70L-222.10 17.70Q-219.32 17.70-217.25 16.80Q-215.17 15.90-213.66 14.37Q-212.15 12.84-211.15 10.82Q-210.15 8.80-209.57 6.53Q-208.99 4.27-208.74 1.88Q-208.49-0.51-208.49-2.76ZM-144.12 7.15L-144.12 7.15Q-144.12 10.42-144.95 12.91Q-145.78 15.41-147.27 17.24Q-148.76 19.07-150.80 20.30Q-152.84 21.53-155.25 22.27Q-157.66 23.00-160.35 23.32Q-163.04 23.64-165.81 23.64L-165.81 23.64Q-169.47 23.64-172.56 23.09Q-175.66 22.55-178.38 21.37Q-181.11 20.19-183.62 18.33Q-186.13 16.47-188.63 13.79L-188.63 13.79L-181.46 6.52Q-180.47 8.94-178.75 11.00Q-177.03 13.06-174.97 14.53Q-172.92 16.01-170.70 16.85Q-168.49 17.70-166.52 17.70L-166.52 17.70Q-164.20 17.70-162.16 17.36Q-160.12 17.03-158.61 16.25Q-157.10 15.48-156.23 14.20Q-155.37 12.91-155.37 10.98L-155.37 10.98Q-155.37 9.50-156.04 8.45Q-156.71 7.40-157.78 6.64Q-158.85 5.88-160.22 5.36Q-161.60 4.83-163.02 4.46Q-164.44 4.09-165.81 3.79Q-167.19 3.49-168.24 3.18L-168.24 3.18Q-170.31 2.58-172.56 1.89Q-174.81 1.21-176.99 0.33Q-179.17-0.55-181.13-1.69Q-183.08-2.84-184.55-4.40Q-186.03-5.96-186.91-8.02Q-187.79-10.08-187.79-12.75L-187.79-12.75Q-187.79-15.95-187.00-18.43Q-186.21-20.91-184.76-22.73Q-183.32-24.56-181.35-25.81Q-179.38-27.06-177.03-27.81Q-174.67-28.57-172.02-28.90Q-169.37-29.24-166.59-29.24L-166.59-29.24Q-162.79-29.24-159.68-28.53Q-156.57-27.83-153.93-26.53Q-151.29-25.23-149.10-23.42Q-146.90-21.61-144.97-19.39L-144.97-19.39L-152.14-12.12Q-152.98-14.65-154.48-16.69Q-155.97-18.73-157.80-20.18Q-159.63-21.64-161.63-22.43Q-163.63-23.23-165.50-23.23L-165.50-23.23Q-167.92-23.23-169.96-22.89Q-172.00-22.56-173.46-21.80Q-174.92-21.05-175.73-19.76Q-176.54-18.48-176.54-16.58L-176.54-16.58Q-176.54-15.07-175.94-14.01Q-175.34-12.96-174.34-12.22Q-173.34-11.48-172.07-11.01Q-170.81-10.53-169.45-10.18Q-168.10-9.83-166.78-9.57Q-165.46-9.30-164.37-8.99L-164.37-8.99Q-162.26-8.39-159.94-7.72Q-157.62-7.05-155.37-6.16Q-153.12-5.26-151.08-4.10Q-149.04-2.94-147.50-1.34Q-145.95 0.26-145.04 2.35Q-144.12 4.44-144.12 7.15ZM-77.54-1.01L-65.02 4.93Q-66.29 7.57-67.96 10.00Q-69.63 12.42-71.70 14.53L-71.70 14.53L-67.13 18.86L-75.11 24.59L-79.19 20.26Q-82.39 21.99-85.83 22.81Q-89.28 23.64-92.90 23.64L-92.90 23.64Q-95.57 23.64-98.47 23.41Q-101.37 23.18-104.20 22.57Q-107.03 21.95-109.58 20.83Q-112.13 19.70-114.05 17.94Q-115.96 16.18-117.11 13.69Q-118.25 11.19-118.25 7.78L-118.25 7.78Q-118.25 5.11-117.25 2.83Q-116.24 0.54-114.54-1.24Q-112.83-3.01-110.60-4.22Q-108.37-5.44-105.87-5.96L-105.87-5.96Q-107.10-6.81-108.28-8.02Q-109.46-9.23-110.39-10.66Q-111.32-12.08-111.90-13.63Q-112.48-15.17-112.48-16.72L-112.48-16.72Q-112.48-20.10-111.06-22.42Q-109.63-24.74-107.35-26.16Q-105.06-27.59-102.20-28.22Q-99.33-28.85-96.45-28.85L-96.45-28.85Q-93.60-28.85-90.69-28.22Q-87.77-27.59-85.43-26.14Q-83.09-24.70-81.62-22.40Q-80.14-20.10-80.14-16.72L-80.14-16.72Q-80.14-14.30-81.09-12.34Q-82.04-10.39-83.58-8.83Q-85.13-7.26-87.06-6.03Q-89.00-4.80-90.93-3.82L-90.93-3.82L-79.15 7.40Q-78.38 5.39-77.96 3.26Q-77.54 1.14-77.54-1.01L-77.54-1.01ZM-91.14-15.95L-91.14-15.95Q-91.14-17.18-91.48-18.30Q-91.81-19.43-92.46-20.27Q-93.11-21.12-94.11-21.63Q-95.12-22.14-96.45-22.14L-96.45-22.14Q-97.89-22.14-98.86-21.66Q-99.83-21.19-100.44-20.34Q-101.06-19.50-101.32-18.37Q-101.58-17.25-101.58-15.95L-101.58-15.95Q-101.58-14.96-101.07-13.91Q-100.56-12.85-99.81-11.87Q-99.05-10.89-98.21-10.01Q-97.37-9.13-96.66-8.50L-96.66-8.50Q-95.61-9.06-94.61-9.83Q-93.60-10.60-92.85-11.54Q-92.09-12.47-91.62-13.58Q-91.14-14.68-91.14-15.95ZM-84.46 14.95L-84.46 14.95L-99.90-0.59Q-102.32 0.75-103.36 2.93Q-104.40 5.11-104.40 7.78L-104.40 7.78Q-104.40 10.17-103.43 12.02Q-102.46 13.86-100.85 15.13Q-99.23 16.40-97.17 17.05Q-95.12 17.70-92.90 17.70L-92.90 17.70Q-90.58 17.70-88.44 17.05Q-86.29 16.40-84.46 14.95ZM10.21-1.60L10.21-1.60L10.21-0.94Q10.14 2.02 9.60 5.18Q9.05 8.34 8.07 11.51Q7.08 14.67 5.71 17.77Q4.34 20.86 2.64 23.69Q0.93 26.52-1.04 29.00Q-3.01 31.48-5.19 33.38L-5.19 33.38L-10.42 30.35Q-9.19 28.28-8.19 25.83Q-7.19 23.39-6.38 20.72Q-5.57 18.05-4.99 15.24Q-4.41 12.42-4.03 9.65Q-3.64 6.87-3.45 4.18Q-3.25 1.49-3.25-0.94L-3.25-0.94Q-3.25-2.84-3.27-5.24Q-3.29-7.65-3.55-10.15Q-3.81-12.64-4.41-15.02Q-5.01-17.39-6.19-19.25Q-7.37-21.12-9.21-22.24Q-11.06-23.37-13.80-23.37L-13.80-23.37Q-16.22-23.37-17.96-22.54Q-19.71-21.71-20.92-20.33Q-22.13-18.94-22.85-17.11Q-23.57-15.28-23.98-13.26Q-24.38-11.24-24.50-9.18Q-24.63-7.12-24.63-5.30L-24.63-5.30L-24.63 4.51L-9.47 4.51L-9.47 10.31L-24.63 10.31L-24.63 22.62L-38.58 22.62L-38.58-3.12Q-38.58-8.64-36.83-13.38Q-35.07-18.13-31.85-21.63Q-28.63-25.12-24.12-27.11Q-19.60-29.10-14.04-29.10L-14.04-29.10Q-10.28-29.10-7.00-28.02Q-3.71-26.95-1.00-25.07Q1.71-23.19 3.83-20.61Q5.96-18.02 7.38-14.96Q8.81-11.91 9.54-8.50Q10.28-5.09 10.21-1.60ZM59.50-0.66L59.50-0.66Q59.50 3.46 58.50 7.92Q57.50 12.39 55.71 16.68Q53.91 20.97 51.42 24.75Q48.92 28.52 45.93 31.27L45.93 31.27L41.47 28.84Q42.42 27.08 43.26 24.90Q44.10 22.72 44.79 20.28Q45.47 17.84 46.02 15.24Q46.56 12.63 46.93 10.08Q47.30 7.54 47.50 5.13Q47.69 2.72 47.69 0.65L47.69 0.65Q47.69-0.73 47.58-2.29Q47.48-3.85 47.14-5.42Q46.81-6.98 46.25-8.42Q45.69-9.87 44.75-10.96Q43.82-12.05 42.50-12.71Q41.19-13.38 39.39-13.38L39.39-13.38Q37.63-13.38 36.26-12.59Q34.89-11.80 33.84-10.52Q32.78-9.23 32.03-7.58Q31.27-5.93 30.80-4.19Q30.32-2.45 30.11-0.76Q29.90 0.93 29.90 2.26L29.90 2.26L29.90 22.62L17.98 22.62L17.98-17.99L22.55-17.99L28.00-8.53Q28.99-10.89 30.46-12.82Q31.94-14.75 33.80-16.12Q35.67-17.50 37.93-18.23Q40.20-18.97 42.84-18.97L42.84-18.97Q47.06-18.97 50.19-17.60Q53.31-16.23 55.39-13.79Q57.46-11.34 58.48-7.99Q59.50-4.63 59.50-0.66ZM108.26-32.93L108.26 22.62L103.69 22.62L98.42 13.79Q97.65 16.01 96.29 17.80Q94.94 19.59 93.16 20.88Q91.39 22.16 89.26 22.86Q87.13 23.57 84.78 23.57L84.78 23.57Q80.14 23.57 76.48 21.91Q72.83 20.26 70.29 17.40Q67.76 14.53 66.43 10.66Q65.09 6.80 65.09 2.37L65.09 2.37Q65.09-2.06 66.43-5.93Q67.76-9.80 70.29-12.64Q72.83-15.49 76.48-17.14Q80.14-18.80 84.78-18.80L84.78-18.80Q88.33-18.80 91.30-17.42Q94.27-16.05 96.38-13.14L96.38-13.14L96.38-32.93L108.26-32.93ZM96.31 2.37L96.31 2.37Q96.31 0.96 96.10-0.73Q95.89-2.41 95.43-4.14Q94.97-5.86 94.24-7.48Q93.50-9.09 92.43-10.36Q91.35-11.62 89.93-12.38Q88.51-13.14 86.68-13.14L86.68-13.14Q84.67-13.14 83.20-12.42Q81.72-11.69 80.67-10.48Q79.61-9.27 78.93-7.69Q78.24-6.10 77.85-4.38Q77.47-2.66 77.31-0.92Q77.15 0.82 77.15 2.37L77.15 2.37Q77.15 3.91 77.31 5.66Q77.47 7.40 77.85 9.12Q78.24 10.84 78.93 12.44Q79.61 14.04 80.67 15.25Q81.72 16.47 83.20 17.19Q84.67 17.91 86.68 17.91L86.68 17.91Q88.68 17.91 90.19 17.20Q91.71 16.50 92.78 15.29Q93.85 14.08 94.54 12.51Q95.22 10.95 95.61 9.21Q95.99 7.47 96.15 5.71Q96.31 3.95 96.31 2.37ZM152.70-14.40L152.70-14.40L146.02-3.33Q145.60-4.73 144.93-6.49Q144.26-8.25 143.28-9.78Q142.29-11.31 140.92-12.34Q139.55-13.38 137.76-13.38L137.76-13.38Q136.11-13.38 134.89-12.54Q133.68-11.69 132.84-10.34Q131.99-8.99 131.45-7.28Q130.90-5.58 130.61-3.84Q130.31-2.10 130.20-0.50Q130.10 1.10 130.10 2.26L130.10 2.26L130.10 22.62L118.18 22.62L118.18-17.99L122.75-17.99L127.56-8.53Q128.55-10.82 129.81-12.73Q131.08-14.65 132.73-16.04Q134.38-17.42 136.48-18.20Q138.57-18.97 141.21-18.97L141.21-18.97Q142.58-18.97 144.26-18.74Q145.95-18.51 147.57-17.97Q149.19-17.42 150.56-16.55Q151.93-15.67 152.70-14.40ZM199.49 2.23L199.49 2.23Q199.49 5.39 198.65 8.17Q197.81 10.95 196.31 13.30Q194.82 15.66 192.71 17.54Q190.60 19.42 188.09 20.72Q185.57 22.02 182.71 22.72Q179.84 23.43 176.82 23.43L176.82 23.43Q173.79 23.43 170.95 22.72Q168.10 22.02 165.59 20.72Q163.07 19.42 160.96 17.54Q158.85 15.66 157.36 13.30Q155.87 10.95 155.02 8.15Q154.18 5.36 154.18 2.23L154.18 2.23Q154.18-0.90 155.02-3.70Q155.87-6.49 157.36-8.85Q158.85-11.20 160.96-13.08Q163.07-14.96 165.59-16.26Q168.10-17.57 170.95-18.27Q173.79-18.97 176.82-18.97L176.82-18.97Q179.84-18.97 182.71-18.27Q185.57-17.57 188.09-16.26Q190.60-14.96 192.71-13.08Q194.82-11.20 196.31-8.85Q197.81-6.49 198.65-3.70Q199.49-0.90 199.49 2.23ZM187.40 2.23L187.40 2.23Q187.40 0.54 187.21-1.34Q187.01-3.22 186.56-5.03Q186.10-6.84 185.31-8.51Q184.52-10.18 183.36-11.43Q182.20-12.68 180.58-13.43Q178.96-14.19 176.82-14.19L176.82-14.19Q174.78-14.19 173.20-13.42Q171.62-12.64 170.44-11.36Q169.26-10.08 168.47-8.39Q167.68-6.70 167.19-4.89Q166.69-3.08 166.48-1.24Q166.27 0.61 166.27 2.23L166.27 2.23Q166.27 3.84 166.48 5.69Q166.69 7.54 167.19 9.36Q167.68 11.19 168.47 12.86Q169.26 14.53 170.44 15.82Q171.62 17.10 173.20 17.87Q174.78 18.65 176.82 18.65L176.82 18.65Q178.93 18.65 180.54 17.89Q182.16 17.13 183.34 15.87Q184.52 14.60 185.29 12.95Q186.06 11.30 186.54 9.47Q187.01 7.64 187.21 5.78Q187.40 3.91 187.40 2.23ZM219.46-27.80L219.46-27.80Q219.46-26.46 218.95-25.26Q218.44-24.07 217.56-23.19Q216.69-22.31 215.49-21.80Q214.29-21.29 212.96-21.29L212.96-21.29Q211.62-21.29 210.45-21.80Q209.27-22.31 208.39-23.19Q207.51-24.07 207.00-25.26Q206.49-26.46 206.49-27.80L206.49-27.80Q206.49-29.13 207.00-30.31Q207.51-31.49 208.39-32.37Q209.27-33.25 210.45-33.75Q211.62-34.26 212.96-34.26L212.96-34.26Q214.29-34.26 215.49-33.75Q216.69-33.25 217.56-32.37Q218.44-31.49 218.95-30.31Q219.46-29.13 219.46-27.80ZM218.94-17.95L218.94 22.62L207.02 22.62L207.02-17.95L218.94-17.95ZM269.81-32.93L269.81 22.62L265.24 22.62L259.96 13.79Q259.19 16.01 257.84 17.80Q256.48 19.59 254.71 20.88Q252.93 22.16 250.80 22.86Q248.68 23.57 246.32 23.57L246.32 23.57Q241.68 23.57 238.03 21.91Q234.37 20.26 231.84 17.40Q229.31 14.53 227.97 10.66Q226.63 6.80 226.63 2.37L226.63 2.37Q226.63-2.06 227.97-5.93Q229.31-9.80 231.84-12.64Q234.37-15.49 238.03-17.14Q241.68-18.80 246.32-18.80L246.32-18.80Q249.87-18.80 252.84-17.42Q255.81-16.05 257.92-13.14L257.92-13.14L257.92-32.93L269.81-32.93ZM257.85 2.37L257.85 2.37Q257.85 0.96 257.64-0.73Q257.43-2.41 256.97-4.14Q256.52-5.86 255.78-7.48Q255.04-9.09 253.97-10.36Q252.90-11.62 251.47-12.38Q250.05-13.14 248.22-13.14L248.22-13.14Q246.22-13.14 244.74-12.42Q243.26-11.69 242.21-10.48Q241.15-9.27 240.47-7.69Q239.78-6.10 239.40-4.38Q239.01-2.66 238.85-0.92Q238.69 0.82 238.69 2.37L238.69 2.37Q238.69 3.91 238.85 5.66Q239.01 7.40 239.40 9.12Q239.78 10.84 240.47 12.44Q241.15 14.04 242.21 15.25Q243.26 16.47 244.74 17.19Q246.22 17.91 248.22 17.91L248.22 17.91Q250.22 17.91 251.74 17.20Q253.25 16.50 254.32 15.29Q255.39 14.08 256.08 12.51Q256.76 10.95 257.15 9.21Q257.54 7.47 257.70 5.71Q257.85 3.95 257.85 2.37Z"/></g>
</svg>